<mxfile host="Electron" agent="Mozilla/5.0 (Windows NT 10.0; Win64; x64) AppleWebKit/537.36 (KHTML, like Gecko) draw.io/24.7.17 Chrome/128.0.6613.36 Electron/32.0.1 Safari/537.36" version="24.7.17">
  <diagram name="第 1 页" id="8nou-HHuewEhpLC_I9eY">
    <mxGraphModel dx="698" dy="470" grid="1" gridSize="10" guides="1" tooltips="1" connect="1" arrows="1" fold="1" page="1" pageScale="1" pageWidth="827" pageHeight="1169" math="0" shadow="0">
      <root>
        <mxCell id="0" />
        <mxCell id="1" parent="0" />
        <mxCell id="QxFqVsaxdW7qKx8MG3qD-1" value="高校" style="rounded=0;whiteSpace=wrap;html=1;" parent="1" vertex="1">
          <mxGeometry x="180" y="410" width="100" height="30" as="geometry" />
        </mxCell>
        <mxCell id="QxFqVsaxdW7qKx8MG3qD-3" value="校长" style="rounded=0;whiteSpace=wrap;html=1;" parent="1" vertex="1">
          <mxGeometry x="180" y="260" width="100" height="30" as="geometry" />
        </mxCell>
        <mxCell id="QxFqVsaxdW7qKx8MG3qD-5" value="学生" style="rounded=0;whiteSpace=wrap;html=1;" parent="1" vertex="1">
          <mxGeometry x="580" y="410" width="100" height="30" as="geometry" />
        </mxCell>
        <mxCell id="QxFqVsaxdW7qKx8MG3qD-6" value="就读信息" style="rounded=0;whiteSpace=wrap;html=1;" parent="1" vertex="1">
          <mxGeometry x="370" y="410" width="100" height="30" as="geometry" />
        </mxCell>
        <mxCell id="QxFqVsaxdW7qKx8MG3qD-7" value="全日制学生" style="rounded=0;whiteSpace=wrap;html=1;" parent="1" vertex="1">
          <mxGeometry x="650" y="530" width="100" height="30" as="geometry" />
        </mxCell>
        <mxCell id="QxFqVsaxdW7qKx8MG3qD-8" value="非全日制学生" style="rounded=0;whiteSpace=wrap;html=1;" parent="1" vertex="1">
          <mxGeometry x="495" y="540" width="100" height="30" as="geometry" />
        </mxCell>
        <mxCell id="QxFqVsaxdW7qKx8MG3qD-9" value="学生会主席" style="rounded=0;whiteSpace=wrap;html=1;" parent="1" vertex="1">
          <mxGeometry x="360" y="640" width="100" height="30" as="geometry" />
        </mxCell>
        <mxCell id="QxFqVsaxdW7qKx8MG3qD-10" value="学生会副主席" style="rounded=0;whiteSpace=wrap;html=1;" parent="1" vertex="1">
          <mxGeometry x="360" y="680" width="100" height="30" as="geometry" />
        </mxCell>
        <mxCell id="QxFqVsaxdW7qKx8MG3qD-11" value="担任" style="rhombus;whiteSpace=wrap;html=1;" parent="1" vertex="1">
          <mxGeometry x="210" y="320" width="80" height="40" as="geometry" />
        </mxCell>
        <mxCell id="QxFqVsaxdW7qKx8MG3qD-12" value="&lt;u&gt;校长ID&lt;/u&gt;" style="ellipse;whiteSpace=wrap;html=1;" parent="1" vertex="1">
          <mxGeometry x="140" y="210" width="60" height="30" as="geometry" />
        </mxCell>
        <mxCell id="QxFqVsaxdW7qKx8MG3qD-13" value="姓名" style="ellipse;whiteSpace=wrap;html=1;" parent="1" vertex="1">
          <mxGeometry x="250" y="210" width="60" height="30" as="geometry" />
        </mxCell>
        <mxCell id="QxFqVsaxdW7qKx8MG3qD-14" value="" style="endArrow=none;html=1;rounded=0;" parent="1" source="QxFqVsaxdW7qKx8MG3qD-3" target="QxFqVsaxdW7qKx8MG3qD-13" edge="1">
          <mxGeometry width="50" height="50" relative="1" as="geometry">
            <mxPoint x="420" y="390" as="sourcePoint" />
            <mxPoint x="470" y="340" as="targetPoint" />
          </mxGeometry>
        </mxCell>
        <mxCell id="QxFqVsaxdW7qKx8MG3qD-15" value="" style="endArrow=none;html=1;rounded=0;" parent="1" source="QxFqVsaxdW7qKx8MG3qD-12" target="QxFqVsaxdW7qKx8MG3qD-3" edge="1">
          <mxGeometry width="50" height="50" relative="1" as="geometry">
            <mxPoint x="420" y="390" as="sourcePoint" />
            <mxPoint x="470" y="340" as="targetPoint" />
          </mxGeometry>
        </mxCell>
        <mxCell id="QxFqVsaxdW7qKx8MG3qD-19" value="" style="endArrow=none;html=1;rounded=0;" parent="1" source="QxFqVsaxdW7qKx8MG3qD-6" target="QxFqVsaxdW7qKx8MG3qD-5" edge="1">
          <mxGeometry width="50" height="50" relative="1" as="geometry">
            <mxPoint x="420" y="460" as="sourcePoint" />
            <mxPoint x="470" y="410" as="targetPoint" />
          </mxGeometry>
        </mxCell>
        <mxCell id="QxFqVsaxdW7qKx8MG3qD-21" value="&lt;u&gt;学生ID&lt;/u&gt;" style="ellipse;whiteSpace=wrap;html=1;" parent="1" vertex="1">
          <mxGeometry x="320" y="350" width="60" height="30" as="geometry" />
        </mxCell>
        <mxCell id="QxFqVsaxdW7qKx8MG3qD-22" value="&lt;u&gt;高校ID&lt;/u&gt;" style="ellipse;whiteSpace=wrap;html=1;" parent="1" vertex="1">
          <mxGeometry x="390" y="350" width="60" height="30" as="geometry" />
        </mxCell>
        <mxCell id="QxFqVsaxdW7qKx8MG3qD-23" value="入学时间" style="ellipse;whiteSpace=wrap;html=1;" parent="1" vertex="1">
          <mxGeometry x="390" y="460" width="60" height="30" as="geometry" />
        </mxCell>
        <mxCell id="QxFqVsaxdW7qKx8MG3qD-24" value="层次" style="ellipse;whiteSpace=wrap;html=1;" parent="1" vertex="1">
          <mxGeometry x="460" y="350" width="60" height="30" as="geometry" />
        </mxCell>
        <mxCell id="QxFqVsaxdW7qKx8MG3qD-25" value="" style="endArrow=none;html=1;rounded=0;" parent="1" source="QxFqVsaxdW7qKx8MG3qD-21" target="QxFqVsaxdW7qKx8MG3qD-6" edge="1">
          <mxGeometry width="50" height="50" relative="1" as="geometry">
            <mxPoint x="420" y="460" as="sourcePoint" />
            <mxPoint x="470" y="410" as="targetPoint" />
          </mxGeometry>
        </mxCell>
        <mxCell id="QxFqVsaxdW7qKx8MG3qD-26" value="" style="endArrow=none;html=1;rounded=0;" parent="1" source="QxFqVsaxdW7qKx8MG3qD-6" target="QxFqVsaxdW7qKx8MG3qD-22" edge="1">
          <mxGeometry width="50" height="50" relative="1" as="geometry">
            <mxPoint x="420" y="460" as="sourcePoint" />
            <mxPoint x="470" y="410" as="targetPoint" />
          </mxGeometry>
        </mxCell>
        <mxCell id="QxFqVsaxdW7qKx8MG3qD-27" value="" style="endArrow=none;html=1;rounded=0;" parent="1" source="QxFqVsaxdW7qKx8MG3qD-6" target="QxFqVsaxdW7qKx8MG3qD-24" edge="1">
          <mxGeometry width="50" height="50" relative="1" as="geometry">
            <mxPoint x="420" y="460" as="sourcePoint" />
            <mxPoint x="470" y="410" as="targetPoint" />
          </mxGeometry>
        </mxCell>
        <mxCell id="QxFqVsaxdW7qKx8MG3qD-29" value="" style="endArrow=none;html=1;rounded=0;" parent="1" source="QxFqVsaxdW7qKx8MG3qD-23" target="QxFqVsaxdW7qKx8MG3qD-6" edge="1">
          <mxGeometry width="50" height="50" relative="1" as="geometry">
            <mxPoint x="420" y="460" as="sourcePoint" />
            <mxPoint x="470" y="410" as="targetPoint" />
          </mxGeometry>
        </mxCell>
        <mxCell id="QxFqVsaxdW7qKx8MG3qD-30" value="姓名" style="ellipse;whiteSpace=wrap;html=1;" parent="1" vertex="1">
          <mxGeometry x="630" y="350" width="60" height="30" as="geometry" />
        </mxCell>
        <mxCell id="QxFqVsaxdW7qKx8MG3qD-31" value="学生ID" style="ellipse;whiteSpace=wrap;html=1;fontStyle=4" parent="1" vertex="1">
          <mxGeometry x="550" y="350" width="60" height="30" as="geometry" />
        </mxCell>
        <mxCell id="QxFqVsaxdW7qKx8MG3qD-32" value="" style="endArrow=none;html=1;rounded=0;" parent="1" source="QxFqVsaxdW7qKx8MG3qD-5" target="QxFqVsaxdW7qKx8MG3qD-31" edge="1">
          <mxGeometry width="50" height="50" relative="1" as="geometry">
            <mxPoint x="420" y="460" as="sourcePoint" />
            <mxPoint x="470" y="410" as="targetPoint" />
          </mxGeometry>
        </mxCell>
        <mxCell id="QxFqVsaxdW7qKx8MG3qD-33" value="" style="endArrow=none;html=1;rounded=0;" parent="1" source="QxFqVsaxdW7qKx8MG3qD-5" target="QxFqVsaxdW7qKx8MG3qD-30" edge="1">
          <mxGeometry width="50" height="50" relative="1" as="geometry">
            <mxPoint x="600" y="400" as="sourcePoint" />
            <mxPoint x="592" y="390" as="targetPoint" />
          </mxGeometry>
        </mxCell>
        <mxCell id="QxFqVsaxdW7qKx8MG3qD-34" value="ISA" style="triangle;whiteSpace=wrap;html=1;direction=north;" parent="1" vertex="1">
          <mxGeometry x="605" y="470" width="50" height="40" as="geometry" />
        </mxCell>
        <mxCell id="QxFqVsaxdW7qKx8MG3qD-36" value="" style="endArrow=none;html=1;rounded=0;" parent="1" source="QxFqVsaxdW7qKx8MG3qD-34" target="QxFqVsaxdW7qKx8MG3qD-5" edge="1">
          <mxGeometry width="50" height="50" relative="1" as="geometry">
            <mxPoint x="420" y="460" as="sourcePoint" />
            <mxPoint x="470" y="410" as="targetPoint" />
          </mxGeometry>
        </mxCell>
        <mxCell id="QxFqVsaxdW7qKx8MG3qD-39" value="" style="endArrow=none;html=1;rounded=0;" parent="1" source="QxFqVsaxdW7qKx8MG3qD-8" target="QxFqVsaxdW7qKx8MG3qD-34" edge="1">
          <mxGeometry width="50" height="50" relative="1" as="geometry">
            <mxPoint x="420" y="460" as="sourcePoint" />
            <mxPoint x="470" y="410" as="targetPoint" />
          </mxGeometry>
        </mxCell>
        <mxCell id="QxFqVsaxdW7qKx8MG3qD-40" value="" style="endArrow=none;html=1;rounded=0;" parent="1" source="QxFqVsaxdW7qKx8MG3qD-7" target="QxFqVsaxdW7qKx8MG3qD-34" edge="1">
          <mxGeometry width="50" height="50" relative="1" as="geometry">
            <mxPoint x="420" y="460" as="sourcePoint" />
            <mxPoint x="470" y="410" as="targetPoint" />
          </mxGeometry>
        </mxCell>
        <mxCell id="QxFqVsaxdW7qKx8MG3qD-41" value="ISA" style="triangle;whiteSpace=wrap;html=1;direction=north;" parent="1" vertex="1">
          <mxGeometry x="520" y="585" width="50" height="40" as="geometry" />
        </mxCell>
        <mxCell id="QxFqVsaxdW7qKx8MG3qD-42" value="" style="endArrow=none;html=1;rounded=0;" parent="1" source="QxFqVsaxdW7qKx8MG3qD-41" target="QxFqVsaxdW7qKx8MG3qD-8" edge="1">
          <mxGeometry width="50" height="50" relative="1" as="geometry">
            <mxPoint x="420" y="510" as="sourcePoint" />
            <mxPoint x="470" y="460" as="targetPoint" />
          </mxGeometry>
        </mxCell>
        <mxCell id="QxFqVsaxdW7qKx8MG3qD-43" value="" style="endArrow=none;html=1;rounded=0;entryX=-0.005;entryY=0.051;entryDx=0;entryDy=0;entryPerimeter=0;" parent="1" source="QxFqVsaxdW7qKx8MG3qD-9" target="QxFqVsaxdW7qKx8MG3qD-41" edge="1">
          <mxGeometry width="50" height="50" relative="1" as="geometry">
            <mxPoint x="420" y="510" as="sourcePoint" />
            <mxPoint x="500" y="630" as="targetPoint" />
            <Array as="points">
              <mxPoint x="523" y="655" />
            </Array>
          </mxGeometry>
        </mxCell>
        <mxCell id="QxFqVsaxdW7qKx8MG3qD-44" value="" style="endArrow=none;html=1;rounded=0;" parent="1" source="QxFqVsaxdW7qKx8MG3qD-10" target="QxFqVsaxdW7qKx8MG3qD-41" edge="1">
          <mxGeometry width="50" height="50" relative="1" as="geometry">
            <mxPoint x="420" y="510" as="sourcePoint" />
            <mxPoint x="470" y="460" as="targetPoint" />
            <Array as="points">
              <mxPoint x="545" y="695" />
            </Array>
          </mxGeometry>
        </mxCell>
        <mxCell id="_QpukUF0QmnMyh9befv--1" value="" style="endArrow=none;html=1;rounded=0;" parent="1" source="_QpukUF0QmnMyh9befv--3" edge="1">
          <mxGeometry relative="1" as="geometry">
            <mxPoint x="230" y="530" as="sourcePoint" />
            <mxPoint x="260" y="440" as="targetPoint" />
          </mxGeometry>
        </mxCell>
        <mxCell id="_QpukUF0QmnMyh9befv--2" value="1" style="resizable=0;html=1;whiteSpace=wrap;align=right;verticalAlign=bottom;" parent="_QpukUF0QmnMyh9befv--1" connectable="0" vertex="1">
          <mxGeometry x="1" relative="1" as="geometry" />
        </mxCell>
        <mxCell id="_QpukUF0QmnMyh9befv--3" value="担任" style="rhombus;whiteSpace=wrap;html=1;" parent="1" vertex="1">
          <mxGeometry x="230" y="540" width="60" height="30" as="geometry" />
        </mxCell>
        <mxCell id="_QpukUF0QmnMyh9befv--4" value="担任" style="rhombus;whiteSpace=wrap;html=1;" parent="1" vertex="1">
          <mxGeometry x="160" y="540" width="60" height="30" as="geometry" />
        </mxCell>
        <mxCell id="_QpukUF0QmnMyh9befv--5" value="" style="endArrow=none;html=1;rounded=0;entryX=0.1;entryY=1;entryDx=0;entryDy=0;entryPerimeter=0;" parent="1" source="_QpukUF0QmnMyh9befv--4" target="QxFqVsaxdW7qKx8MG3qD-1" edge="1">
          <mxGeometry relative="1" as="geometry">
            <mxPoint x="270" y="550" as="sourcePoint" />
            <mxPoint x="270" y="450" as="targetPoint" />
          </mxGeometry>
        </mxCell>
        <mxCell id="_QpukUF0QmnMyh9befv--6" value="1" style="resizable=0;html=1;whiteSpace=wrap;align=right;verticalAlign=bottom;" parent="_QpukUF0QmnMyh9befv--5" connectable="0" vertex="1">
          <mxGeometry x="1" relative="1" as="geometry" />
        </mxCell>
        <mxCell id="_QpukUF0QmnMyh9befv--7" value="" style="endArrow=none;html=1;rounded=0;exitX=0.5;exitY=1;exitDx=0;exitDy=0;entryX=0;entryY=0.5;entryDx=0;entryDy=0;" parent="1" source="_QpukUF0QmnMyh9befv--4" target="QxFqVsaxdW7qKx8MG3qD-10" edge="1">
          <mxGeometry relative="1" as="geometry">
            <mxPoint x="390" y="550" as="sourcePoint" />
            <mxPoint x="550" y="550" as="targetPoint" />
            <Array as="points">
              <mxPoint x="190" y="695" />
            </Array>
          </mxGeometry>
        </mxCell>
        <mxCell id="_QpukUF0QmnMyh9befv--8" value="N" style="resizable=0;html=1;whiteSpace=wrap;align=right;verticalAlign=bottom;" parent="_QpukUF0QmnMyh9befv--7" connectable="0" vertex="1">
          <mxGeometry x="1" relative="1" as="geometry" />
        </mxCell>
        <mxCell id="_QpukUF0QmnMyh9befv--9" value="" style="endArrow=none;html=1;rounded=0;" parent="1" source="_QpukUF0QmnMyh9befv--3" target="QxFqVsaxdW7qKx8MG3qD-9" edge="1">
          <mxGeometry relative="1" as="geometry">
            <mxPoint x="260" y="560" as="sourcePoint" />
            <mxPoint x="550" y="550" as="targetPoint" />
            <Array as="points">
              <mxPoint x="260" y="655" />
            </Array>
          </mxGeometry>
        </mxCell>
        <mxCell id="_QpukUF0QmnMyh9befv--10" value="1" style="resizable=0;html=1;whiteSpace=wrap;align=right;verticalAlign=bottom;" parent="_QpukUF0QmnMyh9befv--9" connectable="0" vertex="1">
          <mxGeometry x="1" relative="1" as="geometry" />
        </mxCell>
        <mxCell id="_QpukUF0QmnMyh9befv--11" value="每周最少学时" style="ellipse;whiteSpace=wrap;html=1;" parent="1" vertex="1">
          <mxGeometry x="380" y="540" width="80" height="30" as="geometry" />
        </mxCell>
        <mxCell id="_QpukUF0QmnMyh9befv--12" value="" style="endArrow=none;html=1;rounded=0;" parent="1" source="_QpukUF0QmnMyh9befv--11" target="QxFqVsaxdW7qKx8MG3qD-8" edge="1">
          <mxGeometry width="50" height="50" relative="1" as="geometry">
            <mxPoint x="440" y="520" as="sourcePoint" />
            <mxPoint x="490" y="470" as="targetPoint" />
          </mxGeometry>
        </mxCell>
        <mxCell id="_QpukUF0QmnMyh9befv--13" value="总学分" style="ellipse;whiteSpace=wrap;html=1;" parent="1" vertex="1">
          <mxGeometry x="747" y="570" width="80" height="30" as="geometry" />
        </mxCell>
        <mxCell id="_QpukUF0QmnMyh9befv--14" value="" style="endArrow=none;html=1;rounded=0;" parent="1" source="QxFqVsaxdW7qKx8MG3qD-7" target="_QpukUF0QmnMyh9befv--13" edge="1">
          <mxGeometry width="50" height="50" relative="1" as="geometry">
            <mxPoint x="440" y="520" as="sourcePoint" />
            <mxPoint x="490" y="470" as="targetPoint" />
          </mxGeometry>
        </mxCell>
        <mxCell id="_QpukUF0QmnMyh9befv--16" value="" style="endArrow=none;html=1;rounded=0;entryX=0.702;entryY=1.006;entryDx=0;entryDy=0;entryPerimeter=0;" parent="1" source="QxFqVsaxdW7qKx8MG3qD-11" target="QxFqVsaxdW7qKx8MG3qD-3" edge="1">
          <mxGeometry relative="1" as="geometry">
            <mxPoint x="390" y="380" as="sourcePoint" />
            <mxPoint x="280" y="300" as="targetPoint" />
          </mxGeometry>
        </mxCell>
        <mxCell id="_QpukUF0QmnMyh9befv--17" value="1" style="resizable=0;html=1;whiteSpace=wrap;align=right;verticalAlign=bottom;" parent="_QpukUF0QmnMyh9befv--16" connectable="0" vertex="1">
          <mxGeometry x="1" relative="1" as="geometry" />
        </mxCell>
        <mxCell id="_QpukUF0QmnMyh9befv--19" value="" style="endArrow=none;html=1;rounded=0;entryX=0.702;entryY=0.006;entryDx=0;entryDy=0;entryPerimeter=0;" parent="1" source="QxFqVsaxdW7qKx8MG3qD-11" target="QxFqVsaxdW7qKx8MG3qD-1" edge="1">
          <mxGeometry relative="1" as="geometry">
            <mxPoint x="270" y="390" as="sourcePoint" />
            <mxPoint x="260" y="390" as="targetPoint" />
          </mxGeometry>
        </mxCell>
        <mxCell id="_QpukUF0QmnMyh9befv--20" value="1" style="resizable=0;html=1;whiteSpace=wrap;align=right;verticalAlign=bottom;" parent="_QpukUF0QmnMyh9befv--19" connectable="0" vertex="1">
          <mxGeometry x="1" relative="1" as="geometry" />
        </mxCell>
        <mxCell id="_QpukUF0QmnMyh9befv--23" value="" style="endArrow=none;html=1;rounded=0;" parent="1" source="V2zs_bqowQulo6sNQ7hY-1" target="QxFqVsaxdW7qKx8MG3qD-1" edge="1">
          <mxGeometry relative="1" as="geometry">
            <mxPoint x="390" y="500" as="sourcePoint" />
            <mxPoint x="550" y="500" as="targetPoint" />
          </mxGeometry>
        </mxCell>
        <mxCell id="_QpukUF0QmnMyh9befv--24" value="1" style="resizable=0;html=1;whiteSpace=wrap;align=right;verticalAlign=bottom;" parent="_QpukUF0QmnMyh9befv--23" connectable="0" vertex="1">
          <mxGeometry x="1" relative="1" as="geometry" />
        </mxCell>
        <mxCell id="_QpukUF0QmnMyh9befv--27" value="" style="endArrow=none;html=1;rounded=0;" parent="1" source="V2zs_bqowQulo6sNQ7hY-5" target="QxFqVsaxdW7qKx8MG3qD-6" edge="1">
          <mxGeometry relative="1" as="geometry">
            <mxPoint x="390" y="500" as="sourcePoint" />
            <mxPoint x="550" y="500" as="targetPoint" />
          </mxGeometry>
        </mxCell>
        <mxCell id="_QpukUF0QmnMyh9befv--29" value="N" style="resizable=0;html=1;whiteSpace=wrap;align=right;verticalAlign=bottom;" parent="_QpukUF0QmnMyh9befv--27" connectable="0" vertex="1">
          <mxGeometry x="1" relative="1" as="geometry" />
        </mxCell>
        <mxCell id="tV7NP1QVf41TqrHoEJO3-1" value="&lt;u&gt;高校ID&lt;/u&gt;" style="ellipse;whiteSpace=wrap;html=1;" parent="1" vertex="1">
          <mxGeometry x="80" y="360" width="60" height="30" as="geometry" />
        </mxCell>
        <mxCell id="tV7NP1QVf41TqrHoEJO3-2" value="校名" style="ellipse;whiteSpace=wrap;html=1;" parent="1" vertex="1">
          <mxGeometry x="80" y="430" width="60" height="30" as="geometry" />
        </mxCell>
        <mxCell id="tV7NP1QVf41TqrHoEJO3-3" value="" style="endArrow=none;html=1;rounded=0;" parent="1" source="QxFqVsaxdW7qKx8MG3qD-1" target="tV7NP1QVf41TqrHoEJO3-1" edge="1">
          <mxGeometry width="50" height="50" relative="1" as="geometry">
            <mxPoint x="330" y="500" as="sourcePoint" />
            <mxPoint x="380" y="450" as="targetPoint" />
          </mxGeometry>
        </mxCell>
        <mxCell id="tV7NP1QVf41TqrHoEJO3-4" value="" style="endArrow=none;html=1;rounded=0;" parent="1" source="tV7NP1QVf41TqrHoEJO3-2" target="QxFqVsaxdW7qKx8MG3qD-1" edge="1">
          <mxGeometry width="50" height="50" relative="1" as="geometry">
            <mxPoint x="330" y="500" as="sourcePoint" />
            <mxPoint x="380" y="450" as="targetPoint" />
          </mxGeometry>
        </mxCell>
        <mxCell id="V2zs_bqowQulo6sNQ7hY-3" value="" style="endArrow=none;html=1;rounded=0;" edge="1" parent="1" source="QxFqVsaxdW7qKx8MG3qD-6" target="V2zs_bqowQulo6sNQ7hY-1">
          <mxGeometry relative="1" as="geometry">
            <mxPoint x="360" y="425" as="sourcePoint" />
            <mxPoint x="280" y="425" as="targetPoint" />
          </mxGeometry>
        </mxCell>
        <mxCell id="V2zs_bqowQulo6sNQ7hY-1" value="记录" style="rhombus;whiteSpace=wrap;html=1;" vertex="1" parent="1">
          <mxGeometry x="300" y="410" width="50" height="30" as="geometry" />
        </mxCell>
        <mxCell id="V2zs_bqowQulo6sNQ7hY-6" value="" style="endArrow=none;html=1;rounded=0;" edge="1" parent="1" source="QxFqVsaxdW7qKx8MG3qD-5" target="V2zs_bqowQulo6sNQ7hY-5">
          <mxGeometry relative="1" as="geometry">
            <mxPoint x="580" y="425" as="sourcePoint" />
            <mxPoint x="470" y="425" as="targetPoint" />
          </mxGeometry>
        </mxCell>
        <mxCell id="V2zs_bqowQulo6sNQ7hY-7" value="M" style="resizable=0;html=1;whiteSpace=wrap;align=left;verticalAlign=bottom;" connectable="0" vertex="1" parent="V2zs_bqowQulo6sNQ7hY-6">
          <mxGeometry x="-1" relative="1" as="geometry" />
        </mxCell>
        <mxCell id="V2zs_bqowQulo6sNQ7hY-5" value="指明" style="rhombus;whiteSpace=wrap;html=1;" vertex="1" parent="1">
          <mxGeometry x="500" y="410" width="50" height="30" as="geometry" />
        </mxCell>
      </root>
    </mxGraphModel>
  </diagram>
</mxfile>
